<?xml version="1.0" encoding="UTF-8"?><svg xmlns="http://www.w3.org/2000/svg" xmlns:xlink="http://www.w3.org/1999/xlink" viewBox="0 0 100 100"><defs><style>.d{fill:#f26522;}.e{fill:none;stroke:#666;stroke-linecap:round;stroke-linejoin:round;stroke-width:3px;}.f{fill:gray;}</style><symbol id="a" viewBox="0 0 99 99"><circle class="e" cx="49.5" cy="49.5" r="48"/></symbol></defs><g id="b"><use width="99" height="99" transform="translate(.5 .5)" xlink:href="#a"/></g><g id="c"><g><path class="d" d="M15.18835,64.15046c.38452-.51995,.91152-.65705,1.53397-.62779,.69772,.03281,1.39871-.00882,2.09712,.01528,.69848,.0241,1.11884,.42362,1.12187,1.01131,.00303,.58757-.41981,.99379-1.11436,1.0119-.83397,.02174-1.6757,.06778-2.50055-.02159-.39541-.04284-.75968-.37315-1.13805-.57327v-.81584Z"/><path class="d" d="M38.09178,77.36318c-1.81463-.00761-3.28032-1.48399-3.26462-3.28844,.01574-1.80945,1.4951-3.26933,3.30373-3.26023,1.79982,.00906,3.28522,1.5074,3.27066,3.29914-.01466,1.80428-1.49446,3.25714-3.30976,3.24953Zm1.26431-3.26987c-.00097-.67384-.58526-1.24674-1.26231-1.23772-.68328,.0091-1.23864,.58907-1.21938,1.27341,.01882,.66882,.54748,1.18518,1.22062,1.19224,.69401,.00727,1.26204-.54584,1.26106-1.22793Z"/><path class="d" d="M38.2654,56.3022c-1.09128-1.17526-2.2652-2.46371-3.46722-3.72539-.77522-.8137-.76629-1.15602-.01686-2.00245,1.19293-1.34732,2.60527-2.05417,4.39849-1.50053,.60213,.1859,1.19271,.56611,1.66201,.99575,1.38529,1.26821,2.71591,2.59683,4.0517,3.91823,1.42564,1.41029,1.41485,3.20037-.02008,4.61134-1.32365,1.30155-2.65234,2.5982-3.99342,3.88173-1.72489,1.65086-4.00543,1.61491-5.68662-.0714-1.33107-1.33512-1.3084-1.48117,.00893-2.81946,1.09421-1.11162,2.12937-2.28138,3.06308-3.28782Zm-1.36585,4.85579c.58462,.61684,1.59066,.73782,2.34164,.04286,1.47955-1.36919,2.91186-2.79,4.34558-4.20779,.43537-.43054,.45249-.95814,.01511-1.39212-1.44731-1.43606-2.89315-2.87574-4.3941-4.25468-.75545-.69403-1.77221-.5438-2.29134,.03618,1.19112,1.29388,2.35749,2.59166,3.55938,3.85567,.80438,.84595,.80242,1.24584-.01868,2.10236-1.19148,1.24289-2.34954,2.51781-3.55759,3.81751Z"/><path class="d" d="M75.33171,74.0766c.00864,1.83065-1.42645,3.28071-3.25309,3.28702-1.81767,.00628-3.29463-1.44695-3.30478-3.25167-.01009-1.79464,1.47299-3.29063,3.26922-3.29767,1.81821-.00713,3.28006,1.44301,3.28865,3.26232Zm-3.28422,1.24361c.70848,.00692,1.24097-.52173,1.23868-1.22973-.00216-.66779-.52052-1.20995-1.17981-1.234-.67656-.02468-1.26977,.53116-1.2889,1.20773-.01914,.67709,.54121,1.24928,1.23003,1.256Z"/><g><path class="f" d="M75.77786,52.03833c1.6697-1.04025,3.05222-2.34501,4.13253-3.93627,3.28577-4.83977,3.76893-9.95708,1.40903-15.32574-.05479-.12464-.11959-.2452-.16886-.37189-.23044-.59266-.04128-1.14994,.46778-1.38959,.52423-.2468,1.1379-.07815,1.36083,.52397,.5652,1.52657,1.27536,3.04774,1.52534,4.63442,1.11478,7.07607-1.26902,12.80501-6.96,17.15654-.07192,.055-.14322,.1109-.21287,.16873-.01674,.0139-.02569,.03718-.08222,.12277m-26.28763-9.28238c-.18456-.9692-.41574-1.86838-.52029-2.78205-.85169-7.44282,2.46933-13.90669,9.00097-17.53299,.35136-.19507,.47585-.40855,.46576-.79579-.02368-.90875-.01858-1.81873-.00439-2.72789,.02448-1.56805,.94936-2.4899,2.52796-2.49469,3.41013-.01036,6.82033-.01069,10.23045,.00016,1.58506,.00504,2.48907,.91978,2.50653,2.50026,.00905,.81834,.03817,1.63903-.01046,2.45456-.03402,.57054,.1366,.8892,.66689,1.16322,1.75248,.90556,3.26832,2.13613,4.58063,3.60829,.45614,.5117,.42467,1.12201-.02422,1.51497-.42239,.36976-.9982,.3221-1.4665-.12402-.08217-.07827-.15581-.16546-.23393-.24802-2.06713-2.18458-4.55136-3.6544-7.4726-4.39001-8.77473-2.20959-17.57115,3.78712-18.74925,12.78263-.27842,2.12599-.10069,4.21082,.45736,6.27765,.15847,.58694,.39076,.82039,1.05845,.81407m19.14694-21.46293c0-.84907,.02903-1.62054-.02316-2.38648-.01117-.16384-.31588-.43976-.48708-.44109-3.38536-.02623-6.77101-.02537-10.15641-.00236-.16882,.00115-.47231,.24443-.48115,.38912-.04787,.78425-.02271,1.57295-.02271,2.44906,3.75413-1.2263,7.43347-1.21668,11.17052-.00826Z"/><path class="f" d="M37.27226,35.79648c-2.86256-.00003-5.72512,.00113-8.58767-.00208-.24859-.00028-.50393,.00153-.74431-.05138-.51421-.11319-.77937-.48367-.77091-.98467,.00842-.49877,.27888-.86173,.79841-.96228,.22077-.04273,.45186-.04395,.67827-.04403,5.79327-.00214,11.58654-.00214,17.37981,.00038,.22623,.0001,.45885,.00054,.67734,.05004,.47752,.1082,.74018,.4291,.76049,.91787,.02146,.51646-.21729,.88423-.72455,1.01297-.25902,.06574-.53999,.06045-.81108,.06081-2.88527,.00385-5.77055,.00239-8.65582,.00236Z"/><path class="f" d="M41.30071,30.51853c-2.81486,0-5.62972,.00277-8.44456-.00449-.26741-.00069-.55218-.01707-.79817-.10867-.45724-.17027-.73434-.57808-.57514-1.01911,.12517-.34674,.48576-.63202,.79502-.87751,.12852-.10202,.39552-.03557,.59956-.03561,5.58431-.00109,11.16863-.0009,16.75294-.00073,.13619,0,.27282-.00446,.4085,.00448,.62774,.04137,1.06077,.46344,1.05332,1.02173-.00705,.52753-.42133,.95004-1.00675,1.01182-.17976,.01897-.36286,.00784-.54443,.00786-2.74676,.00034-5.49353,.00023-8.24029,.00023Z"/><path class="f" d="M68.57566,38.22057c.65836,0,1.24326-.00303,1.8281,.00143,.24936,.0019,.50301-.00643,.74701,.03512,.57185,.09737,.89161,.44632,.86887,1.03528-.0227,.58811-.36235,.94274-.94495,.95658-1.18085,.02805-2.36331,.03092-3.5441,.00231-.66106-.01602-.99442-.41049-.99715-1.12435-.00909-2.38598-.00912-4.77203,.00065-7.158,.00279-.68271,.42605-1.13319,1.00955-1.1339,.57931-.0007,1.01948,.45219,1.02537,1.13044,.01579,1.81778,.00618,3.63577,.00664,5.45369,.00006,.24349,0,.48699,0,.80142Z"/><path class="f" d="M43.13507,40.50453c-1.43025-.00008-2.86053,.00531-4.29074-.00229-.74879-.00398-1.20319-.38259-1.22066-.98705-.01833-.63402,.4509-1.05197,1.23015-1.05378,2.88318-.00671,5.7664-.00596,8.64959-.00051,.78429,.00148,1.26505,.40722,1.2615,1.03068-.00356,.62515-.47477,1.00825-1.27099,1.0114-1.45293,.00575-2.9059,.00163-4.35885,.00155Z"/><path class="f" d="M32.29843,40.50394c-.72658-.00006-1.45341,.01171-2.17968-.00346-.69335-.01447-1.11231-.41336-1.10966-1.01978,.00262-.60005,.42611-1.00909,1.12023-1.01674,1.43029-.01575,2.86097-.01498,4.29128-.00057,.72522,.0073,1.17205,.44213,1.14899,1.06168-.02194,.58938-.45576,.9648-1.15958,.97639-.70369,.01159-1.40771,.00254-2.11159,.00248Z"/><path class="f" d="M66.53375,27.40398c-.0003-.22714-.01611-.4556,.0028-.68115,.04821-.57494,.35555-.92945,.94141-.9715,.59113-.04244,.98455,.27906,1.0594,.83712,.0747,.55706,.07318,1.1394,.00033,1.69697-.07343,.56201-.48571,.89059-1.05855,.847-.56219-.04278-.90516-.39172-.94245-.97908-.0158-.24884-.00264-.49952-.00293-.74937Z"/><path class="f" d="M79.33096,40.24431c-.27171,.0002-.54733,.02966-.81422-.00607-.52101-.06974-.80643-.40578-.8384-.91709-.0318-.50869,.1989-.94531,.70998-1.01032,.64237-.08171,1.31094-.08125,1.95334,.00053,.51144,.06511,.74414,.50436,.71144,1.01027-.03276,.50686-.31687,.85023-.83997,.91595-.28974,.0364-.58781,.00653-.88217,.00673Z"/><path class="f" d="M55.69183,40.24451c-.27193,.00016-.54743,.0283-.81499-.00581-.52478-.0669-.8118-.42174-.84996-.9161-.03867-.50103,.211-.9434,.71822-1.00958,.6426-.08384,1.31231-.0852,1.95506-.00288,.50749,.065,.74245,.4929,.71098,1.00904-.03164,.51884-.32198,.84527-.83647,.91783-.28887,.04074-.5882,.00734-.88284,.0075Z"/></g><path class="d" d="M66.70801,44.31447c1.40837-.00809,2.52932,.47314,3.46827,1.53537,1.66548,1.88417,11.50875,12.61954,13.53468,14.81973,.74238,.80623,1.10698,1.73315,1.10062,2.83363-.01574,2.71908-.00094,5.43832-.0066,8.15748-.0039,1.87776-1.17651,3.05804-3.04554,3.07743-.60901,.00632-1.21814,.00099-1.87217,.00099-.30605,2.45603-1.39854,4.41698-3.41348,5.81528-1.4031,.9737-2.97542,1.43819-4.67601,1.36709-3.93728-.1646-6.58839-2.66932-7.59248-7.14892-6.05848,0-12.12452,0-18.19045,.00091-.23271,.79457-.42716,1.60216-.70899,2.378-.28901,.79559-.85337,1.06524-1.45693,.79272-.57002-.25738-.7121-.79373-.41427-1.56398,1.33232-3.44574-.46435-7.04196-3.94819-7.90271-2.42989-.60036-4.96956,.43454-6.29503,2.56518-1.32226,2.12546-1.12285,4.88929,.48904,6.77838,1.66481,1.9511,4.31645,2.59698,6.65799,1.61819,.22929-.09585,.44564-.22266,.67498-.31839,.54964-.22943,1.08404-.06041,1.34718,.41561,.28091,.50816,.12658,1.06694-.43499,1.38952-1.24623,.71585-2.60221,1.05466-4.03406,1-3.82799-.14612-6.86763-2.84356-7.50705-6.62529-.02937-.17372-.07825-.34414-.12121-.52974h-.90376c0,.54512,.01229,1.06089-.00291,1.57584-.02228,.75507-.38259,1.11782-1.14169,1.12511-1.31414,.01261-2.62858,.01223-3.94273-.00027-.68723-.00654-1.12713-.41434-1.13345-1.00321-.00633-.58991,.43221-1.0152,1.11164-1.0267,.99322-.01681,1.98693-.00432,3.02352-.00432v-.69814c-.79271,0-1.57957,.00485-2.36634-.00105-1.50598-.01128-2.24745-.75496-2.25066-2.26359-.00444-2.08469-.00435-4.1694,.00181-6.25408,.00103-.34947-.00614-.59827-.42423-.79055-.27497-.12646-.5334-.58264-.54511-.90053-.01053-.28586,.26135-.72616,.52338-.84465,.405-.18314,.45568-.41313,.44773-.7779-.01621-.74409-.00485-1.48879-.00485-2.3052-.28261-.01705-.5207-.04337-.75883-.04387-1.72214-.00361-3.44452-.01846-5.1663,.00664-.62346,.00909-1.15551-.10586-1.54218-.62918v-.81584c.39546-.51193,.92651-.62306,1.54958-.61276,1.69902,.02808,3.39881,.0096,5.09829,.00956,.24515,0,.49031,0,.77641,0v-9.86187c-1.04887,0-2.10339,.00051-3.15791-.00014-1.04309-.00064-1.53414-.32193-1.54255-1.00753-.00849-.69201,.49014-1.03127,1.51849-1.03179,1.04142-.00052,2.08283-.00012,3.13531-.00012,.03985-.06552,.08554-.11434,.10201-.17158,.4323-1.50212,1.24045-2.11844,2.81456-2.11897,7.40975-.00248,14.81949-.00113,22.22924-.00114m-22.98903,19.20675c.33179,0,.60045-.00041,.86911,.00007,1.1554,.00205,2.31128-.01492,3.466,.01417,.64384,.01622,1.0644,.45036,1.06771,1.0045,.00331,.55306-.42233,.9718-1.05846,1.01171-.36117,.02266-.72473,.00867-1.08721,.0089-1.08008,.00069-2.16016,.00025-3.24611,.00025v2.33589c.12013,.01637,.20595,.03821,.29179,.03828,2.62816,.00244,5.2564,.0118,7.88436-.01055,.26485-.00225,.55677-.15558,.78765-.31088,2.68294-1.80458,6.14743-1.80063,8.82846-.00337,.27823,.18652,.65673,.31216,.98977,.31449,3.28505,.02298,6.57032,.01452,9.85552,.01248,.21809-.00014,.43617-.02058,.65162-.03144v-21.52252c-.17932-.01161-.3118-.02769-.44428-.02771-9.35718-.00125-18.71436,.00214-28.07152-.00892-.62164-.00074-.82523,.23448-.82175,.84777,.02031,3.57963,.00929,7.15943,.01201,10.73917,.00013,.17231,.03003,.3446,.05139,.57411,.30747,0,.57561-.00031,.84374,.00005,1.15547,.00156,2.3113-.01352,3.46625,.01164,.63858,.01391,1.06503,.44756,1.06676,1.00027,.00173,.55126-.42208,.97025-1.05931,1.01681-.33816,.0247-.67931,.01025-1.01912,.01051-1.09994,.00084-2.19988,.00031-3.3244,.00031v2.974Zm35.77135-17.11468h-4.32966v21.53204c.25359,0,.45522,0,.65686,0,3.37609-.00023,6.75219,.00387,10.1282-.01139,.20372-.00092,.42786-.12434,.60692-.24399,2.87352-1.92004,6.13855-1.91418,9.04654,.02127,.1456,.09691,.3163,.22038,.47624,.2217,1.8739,.01548,3.74797,.00993,5.64809,.00993v-1.45321c-1.34634-.13172-1.70841-.34646-1.74482-1.01517-.03804-.69875,.30542-.92743,1.73041-1.14136,.1746-.98569,.0485-1.87489-.76764-2.5784-.25568-.22039-.48928-.47754-.68727-.75097-.27055-.37363-.6148-.45985-1.05521-.45742-2.76423,.01524-5.52858,.00872-8.29289,.00586-.24832-.00026-.50258,.00368-.7437-.04538-.54273-.11044-.81575-.46999-.79722-1.01932,.01751-.51889,.29958-.84522,.814-.9359,.22102-.03896,.45112-.03545,.67711-.03571,2.08456-.00243,4.16913-.00039,6.25369-.00301,.22763-.00029,.45524-.02181,.72287-.03554-.06895-.14214-.08007-.18916-.10853-.22033-3.43714-3.76463-6.86257-7.54019-10.33524-11.27179-.3258-.35009-.93739-.54573-1.43841-.59703-.91937-.09413-1.85524-.02718-2.78422-.02731-.53212-.00008-1.06425-.00001-1.60279-.00001v12.11993c.27346,.01211,.51633,.03144,.75927,.03215,1.13291,.00332,2.26582,.00134,3.39874,.00169,.15859,.00005,.31762-.00462,.47568,.00524,.65653,.04096,1.07564,.41376,1.09886,.97131,.02415,.57973-.41071,1.03801-1.08914,1.05055-1.40434,.02598-2.80945,.01419-4.21424,.0113-1.72097-.00353-2.50074-.77631-2.50177-2.47961-.00216-3.58001-.00069-7.16002-.00072-10.74003,0-.29191,0-.58381,0-.92006Zm11.57363,21.89619c-3.20336-.00634-5.78565,2.57432-5.78479,5.78114,.00086,3.20081,2.58948,5.80249,5.77604,5.80518,3.17047,.00268,5.79875-2.62343,5.80182-5.79701,.00308-3.19024-2.59133-5.78297-5.79308-5.7893Zm-26.17509,4.33472h8.13844v-2.61497h-9.13172l.99328,2.61497Zm19.38401-2.61984h-9.11207v2.63656h8.11104l1.00103-2.63656Zm-40.5461,2.63259h5.59053l1.00261-2.63761h-6.59313v2.63761Zm54.14404-2.63775c.28859,.8295,.55554,1.63494,.85867,2.42652,.04491,.11728,.25778,.2338,.39785,.24001,.58645,.02598,1.17518,.02334,1.76225,.00492,.49022-.01538,.83359-.26168,.86006-.77401,.03223-.62399,.00766-1.25092,.00766-1.89744h-3.88649Z"/></g></g></svg>