<?xml version="1.0" encoding="UTF-8"?><svg xmlns="http://www.w3.org/2000/svg" xmlns:xlink="http://www.w3.org/1999/xlink" viewBox="0 0 100 100"><defs><style>.d{fill:#f26522;}.e{fill:none;stroke:#666;stroke-linecap:round;stroke-linejoin:round;stroke-width:3px;}.f{fill:gray;}</style><symbol id="a" viewBox="0 0 99 99"><circle class="e" cx="49.5" cy="49.5" r="48"/></symbol></defs><g id="b"><use width="99" height="99" transform="translate(.5 .5)" xlink:href="#a"/></g><g id="c"><g><path class="d" d="M17.93591,63.53238c.3015-.4959,.73779-.65235,1.31561-.64148,1.62786,.03063,3.25667,.01065,4.8851,.01069,1.73208,.00004,2.21443,.33818,2.76223,1.9514,.64367-.23677,1.30211-.44115,1.92019-.73145,.16579-.07787,.29401-.41711,.29513-.63709,.01804-3.56994,.0128-7.14,.01287-10.71003,0-.20877-.00313-.41762,.00126-.62631,.0372-1.76797,1.15994-2.8778,2.933-2.879,5.7204-.00388,11.4408-.00148,17.1612-.00146,.87685,0,1.7538-.00822,2.63052,.00212,1.64852,.01944,2.78884,1.15328,2.7994,2.80512,.01335,2.08765,.00674,4.17546,.00179,6.26319-.00172,.72838-.3668,1.16405-.94101,1.155-.56871-.00897-.93125-.45156-.93355-1.17897-.00633-2.00421-.00012-4.00845-.00348-6.01268-.00149-.88744-.26779-1.15239-1.15763-1.15382-1.91659-.00307-3.83318-.00094-5.83811-.00094,0,.27731,0,.49943,0,.72155-.00006,1.9416,.00453,3.88321-.0018,5.82478-.00434,1.32985-.57529,1.89389-1.91645,1.90002-1.33612,.0061-2.67236,.00937-4.00843-.00128-1.23608-.00985-1.84874-.62117-1.854-1.85184-.0083-1.94156-.00229-3.88318-.00233-5.82478,0-.22693,0-.45387,0-.72934-.22421-.01497-.40481-.03724-.58545-.03751-1.77457-.0026-3.54917-.00586-5.32372,.00048-.77655,.00278-1.07611,.28286-1.0778,1.05174-.00815,3.71615-.00363,7.43233-.00164,11.1485,.00005,.10098,.02235,.20195,.0352,.31075,.90496,.09858,1.79949,.13741,2.66979,.3033,1.69709,.32352,3.25866,1.01465,4.71772,1.93563,.54679,.34514,1.07205,.72653,1.63155,1.04901,2.06566,1.19054,3.25889,2.93568,3.43113,5.40777,.22616-.0725,.41618-.12229,.59787-.19334,2.71729-1.06258,5.42882-2.14018,8.15472-3.18015,.43252-.16501,.54673-.38147,.54008-.81563-.02429-1.58631-.00972-3.17322-.0094-4.7599,.00003-.167-.00898-.33504,.0061-.5008,.05249-.57696,.45011-.96638,.96273-.95387,.52385,.01279,.89805,.39779,.90335,.99523,.01388,1.56568,.00592,3.13156,.00662,4.69735,.0001,.22711,0,.45422,0,.71479,.13126,.02704,.22627,.0504,.32254,.06591,2.43922,.39294,3.52094,2.87194,2.05589,4.86671-.43831,.59677-1.08519,1.13383-1.75362,1.45301-4.53297,2.16456-9.08908,4.28149-13.65846,6.36837-.91851,.4195-1.92599,.64421-2.89245,.95873h-1.75373c-1.3706-.57363-2.769-1.09002-4.10346-1.73807-1.17613-.57116-2.26899-1.31126-3.42117-1.93513-.79302-.42939-1.65208-.65721-2.56402-.58489-.329,1.55595-1.00189,2.10455-2.55285,2.10553-1.66666,.00105-3.33355-.016-4.99983,.00903-.5816,.00874-1.06215-.11144-1.39921-.61235v-.62633c.28288-.51859,.72409-.6675,1.30114-.65855,1.71122,.02655,3.42319,.00017,5.13468,.01587,.41333,.00379,.59115-.09378,.58929-.55645-.01629-4.0494-.01524-8.09891-.00098-12.14832,.00153-.43566-.12556-.57607-.56619-.57044-1.71135,.02189-3.42346-.00976-5.1346,.01918-.57503,.00972-1.0144-.14382-1.32334-.63222v-.62633Zm8.89435,12.39008c1.96824-.06833,3.55218,.75519,5.10433,1.68336,1.03761,.62048,2.07954,1.2356,3.14039,1.81493,1.72366,.94127,3.50177,1.02186,5.29064,.19522,4.72936-2.18545,9.45865-4.37135,14.16812-6.59904,.45382-.21467,.88046-.66145,1.12417-1.10736,.43546-.79674-.09013-1.60507-.999-1.60202-.44614,.0015-.91515,.10561-1.33388,.26692-3.32482,1.28087-6.64074,2.5849-9.95637,3.88948-.18595,.07316-.40704,.17413-.50732,.32955-.88594,1.37317-2.66569,1.73429-4.29669,.92561-.68798-.34111-1.33443-.77044-1.9827-1.18628-1.40452-.90092-2.81471-1.79514-4.18191-2.7503-.27161-.18975-.4829-.63599-.49382-.97139-.00782-.24022,.32869-.64176,.57719-.70239,.31384-.07658,.74908,.03291,1.03714,.21344,1.69649,1.06315,3.35794,2.18209,5.04895,3.25422,.41555,.26347,.87962,.48872,1.3525,.61495,.81276,.21695,1.36984-.16763,1.58324-.98986,.36071-1.38983-.31135-3.16942-1.59854-4.07595-.93706-.65995-1.90044-1.28734-2.88521-1.8736-1.3916-.82844-2.89133-1.36898-4.50745-1.59735-1.96055-.27705-3.69325,.44889-5.42644,1.17378-.13782,.05764-.24258,.35721-.2461,.54652-.02214,1.18941-.01123,2.37943-.01124,3.56925,0,1.62519,0,3.25038,0,4.97829Zm17.03937-24.73664h-3.96029v6.48775h3.96029v-6.48775Z"/><path class="f" d="M62.14436,28.11318v-2.04813h-29.70995v18.05546h.70344c3.90384,0,7.80769-.00042,11.71153,.00119,.2081,.00009,.42502-.01711,.62255,.03346,.48194,.1234,.76209,.45958,.73357,.9556-.02816,.48989-.3234,.80369-.82536,.87668-.16389,.02383-.33338,.01165-.50031,.01167-4.13348,.00048-8.26696,.00109-12.40044-.00001-1.41893-.00038-1.95485-.53757-1.95552-1.97791-.00278-5.97058-.00298-11.94117,.00007-17.91175,.00073-1.43124,.53457-1.96321,1.97297-1.96397,6.15847-.00325,12.31695-.0061,18.47539,.00772,.47258,.00106,.82137-.12629,1.16198-.4562,1.19945-1.16177,2.46971-2.25298,3.63353-3.44843,2.32144-2.38456,5.07779-2.79629,8.11586-1.84746,1.00392,.31354,1.94822,.83542,2.89377,1.31349,.94834,.47949,1.85587,1.039,2.7962,1.53518,1.58247,.83502,2.57304,1.01593,4.43348,.85156,.05056-.16441,.10042-.34126,.15917-.51511,.28458-.84211,.98981-1.38653,1.87808-1.39486,1.64907-.01546,3.29842-.01037,4.94759-.00254,.6397,.00304,1.04961,.361,1.07128,.89617,.02263,.55863-.40248,.96935-1.06164,.9751-1.44035,.01255-2.88087,.00429-4.32133,.00452-.22332,.00004-.44664,0-.70606,0v13.64289c.40497,0,.77406-.00007,1.14315,.00001,1.29432,.0003,2.5887-.0064,3.88294,.00398,.6388,.00512,1.04779,.36768,1.0632,.90209,.01622,.56223-.40254,.96295-1.07203,.96812-1.62825,.01256-3.25686,.01974-4.88492-.00178-1.08563-.01435-1.64629-.55122-2.15667-2.04684-.8994,.09782-1.87186,.05399-2.74378,.32894-1.93691,.61079-3.81848,.5126-5.72092-.05468-.43573-.12993-.87941-.23321-1.42832-.37735,0,.28647,0,.50308,0,.71969-.00005,2.65127,.00234,5.30255-.00119,7.95382-.00179,1.34428-.55667,1.89485-1.90404,1.89539-4.04997,.00163-8.09995,.00071-12.14993,.00018-.16691-.00002-.33706,.01361-.50014-.0131-.49824-.08161-.78989-.39132-.81018-.88826-.02045-.50085,.26079-.82872,.74317-.94745,.19821-.04879,.415-.0287,.62335-.02877,3.77859-.00135,7.55717-.00099,11.33576-.00099h.7335v-9.14978l-2.84932-.18239c0,.87119,.00098,1.63836-.00024,2.40553-.0016,.99996-.16779,1.19903-1.13669,1.36807-.9023,.15741-1.38541,.65708-1.51976,1.57181-.12148,.82715-.40621,1.08937-1.23152,1.08984-5.40673,.00306-10.81347,.00324-16.2202-.00047-.79257-.00054-1.09043-.27617-1.1909-1.05256-.12008-.92796-.62546-1.45179-1.55524-1.61201-.9372-.1615-1.10494-.35823-1.10685-1.32621-.00293-1.4822-.00559-2.96444,.00148-4.44661,.00389-.81434,.25123-1.08467,1.04591-1.18914,.91312-.12004,1.49022-.67888,1.61097-1.56001,.12146-.88631,.35588-1.09854,1.26247-1.09913,4.551-.00294,9.10203,.00431,13.65297-.01335,.32993-.00128,.65871-.17407,.9889-.26391,.67418-.18343,1.34375-.49457,2.02447-.52178,1.83417-.07331,3.6732-.02516,5.51031-.02522,.22587,0,.45174,0,.73046,0Zm11.8638,5.41002v-9.54582c-2.0751,.25304-3.93206-.25839-5.67895-1.26664-1.06506-.61471-2.13473-1.22749-3.23875-1.76654-.78018-.38093-1.60107-.71642-2.43991-.93089-1.47867-.37806-3.01642-.38975-4.27269,.5492-1.37453,1.02735-2.588,2.27019-3.87167,3.41911l.06644,.16238c.22189,0,.44379-.00002,.66568,0,2.33782,.00029,4.6757-.00874,7.01344,.00466,1.23904,.0071,1.79493,.57795,1.80361,1.80565,.00665,.93926,.00502,1.87862,.00026,2.8179-.00473,.93363-.29119,1.21693-1.24403,1.21864-2.23345,.00399-4.46692-.00124-6.70036,.00477-.26903,.00072-.54616,.01485-.80532,.07962-.71098,.17769-1.1407,.81336-1.08139,1.55002,.05782,.71819,.61181,1.28401,1.33488,1.34148,.29053,.02309,.58506,.02448,.87615,.00766,3.48862-.20163,6.90492,.14354,10.26453,1.1634,.8467,.25703,1.81826,.27754,2.70765,.18019,1.51991-.16637,3.02022-.51175,4.60042-.79478Zm-21.63795-2.64056c-.11642-.03139-.17412-.06052-.23185-.06057-4.00823-.00369-8.01648-.00921-12.02463,.00807-.16564,.00071-.4145,.18086-.48176,.33839-.41523,.97254-1.09798,1.64844-2.05931,2.08179-.17036,.0768-.35252,.34155-.36083,.52705-.0383,.85421-.04171,1.71236,.00139,2.56611,.01008,.19957,.20762,.47972,.392,.56529,.93531,.43404,1.63178,1.08637,1.99583,2.05202,.11788,.31267,.2817,.39204,.59453,.39146,4.73891-.00881,9.47787-.00221,14.21673-.02091,.18338-.00072,.46216-.17731,.53304-.3422,.42733-.99414,1.12714-1.68422,2.11701-2.10721,.13778-.05888,.31118-.23101,.31997-.36075,.03614-.53399,.01512-1.07186,.01512-1.64548-1.29176-.08287-2.58625,.1986-3.67591-.64772-1.08761-.84472-1.51496-1.95184-1.35133-3.34535Z"/></g></g></svg>