<?xml version="1.0" encoding="UTF-8"?><svg xmlns="http://www.w3.org/2000/svg" xmlns:xlink="http://www.w3.org/1999/xlink" viewBox="0 0 100 100"><defs><style>.d{fill:#f26522;}.e{fill:none;stroke:#666;stroke-linecap:round;stroke-linejoin:round;stroke-width:3px;}.f{fill:gray;}</style><symbol id="a" viewBox="0 0 99 99"><circle class="e" cx="49.5" cy="49.5" r="48"/></symbol></defs><g id="b"><use width="99" height="99" transform="translate(.5 .5)" xlink:href="#a"/></g><g id="c"><g><path class="f" d="M34.17065,64.53407c.1039-.01286,.20794-.0246,.22201-.02626,.31542-1.20626,.51662-2.38505,.9316-3.48305,1.08015-2.85802,3.06727-4.9133,5.82709-6.22742,.19475-.09273,.41787-.24992,.50016-.43415,.4436-.99315,.84686-2.00432,1.30158-3.09971-2.59013-2.0452-4.00688-4.88788-4.13929-8.44907-.46346,0-.8928,.03337-1.31536-.00604-1.46955-.13705-2.53041-.88691-3.03031-2.2759-.50022-1.38986-.16377-2.63642,.8968-3.67596,.07625-.07474,.15576-.14614,.21352-.20017-.44502-1.25998-.93378-2.47856-1.3008-3.73277-.32036-1.0948-.51961-2.22655-.74159-3.34807-.14164-.71564,.19217-1.22858,.79753-1.3208,.56204-.08562,.94743,.30958,1.12655,.99094,.49796,1.89421,.98046,3.79592,1.58197,5.65821,.36971,1.14464,.46576,1.11617,1.70124,.92066,.11211-.83377,.16386-1.67613,.34739-2.48874,.38774-1.71681,1.2922-3.14587,2.62681-4.29262,1.00292-.86175,2.01645-.97786,3.17151-.34691,3.4245,1.87065,6.83544,1.86649,10.25572-.01408,1.11558-.61338,2.16239-.49186,3.11623,.34059,1.81866,1.58721,2.80182,3.58392,2.88907,6.00755,.00777,.21593,.01181,.43204,.02278,.6478,.00202,.03975,.02914,.07822,.06485,.16803,.48651,.0324,.99614,.07768,1.50657,.09019,.09524,.00233,.24159-.1052,.28368-.19845,1.0526-2.33176,2.04544-4.6842,1.85306-7.32612-.02906-.39904-.15796-.80996-.32638-1.17595-.42487-.92325-1.25023-1.26954-2.19727-1.37503-.53321-.0594-.93979-.25256-1.17613-.76992-2.34841-5.14082-7.7123-7.25996-13.34334-5.50617-1.55538,.48443-3.17053,.88061-4.78593,1.04448-2.43981,.2475-4.75237-.41801-6.93237-1.52481-.19059-.09677-.38076-.19436-.67638-.34531-.0914,.84547-.21335,1.623-.25146,2.40462-.06419,1.31626-.08191,2.635-.10594,3.95293-.01397,.76616-.34182,1.21765-.93236,1.23602-.58269,.01813-1.03411-.43889-1.00365-1.1805,.09038-2.20028,.21546-4.3996,.36403-6.59679,.0599-.88584,.69946-1.38175,1.41016-1.78947h1.03785c3.34957,2.04496,6.87173,2.517,10.60302,1.18794,3.21658-1.14572,6.45778-1.35626,9.69826-.11542,2.75547,1.05513,4.80664,2.93638,6.22282,5.51058,.2125,.38625,.44816,.60395,.90064,.71603,2.04932,.50759,3.31146,2.10927,3.4495,4.26089,.1433,2.23362-.45734,4.31899-1.2411,6.37014-.06932,.18141-.12614,.37122-.22151,.53846-.51741,.90741-.61203,1.65244,.00255,2.7114,1.24207,2.1402-.48048,4.73237-3.0431,4.8582-.36331,.01784-.72825,.00247-1.14734,.00247-.11194,3.53253-1.53524,6.37243-4.1303,8.43899,.45259,1.09148,.85853,2.10295,1.29831,3.0995,.0746,.16904,.28134,.29406,.44969,.40505,.93436,.61598,1.90264,1.18442,2.80565,1.84274,.65207,.47538,.73295,1.08768,.33852,1.55239-.40312,.47496-.96204,.43278-1.59534-.07548-.55167-.44274-1.13185-.84996-1.78655-1.33779-.07152,.27363-.12298,.42462-.14977,.57986-.47887,2.77478-1.94527,4.85752-4.40031,6.22864-1.26643,.70729-2.16913,.16275-2.36115-1.26732-.09103-.67793-.34541-1.38578-.71175-1.9618-.46-.7233-1.38535-.74183-1.84722-.02626-.39234,.60785-.66061,1.3569-.76614,2.07544-.1917,1.3053-1.06821,1.85449-2.24551,1.22702-2.55796-1.36332-4.03844-3.50644-4.51971-6.35372-.02045-.12099-.04103-.24197-.06257-.36899-2.51508,.90064-5.02337,4.73735-4.95082,7.57046m27.09304,0c-.31729-1.09299-.61106-2.09515-.89779-3.09932-.07579-.26543-.25251-.58918-.16555-.79378,.13503-.31768,.40726-.67735,.71015-.80014,.46728-.18943,.93546,.0499,1.09387,.54316,.37429,1.16543,.69153,2.3494,1.01923,3.52937,.05593,.20139,.04936,.42014,.07418,.65467m-15.45096-12.91996c4.44249,.0375,7.9922-2.61583,8.94592-6.76576,.20528-.89323,.17941-1.84174,.2364-2.76624,.04953-.80356,.36025-1.13497,1.16157-1.15092,.56184-.01118,1.1242,.00461,1.68611-.0047,1.05876-.01753,1.74221-.61012,1.75152-1.50686,.00908-.87355-.69345-1.50357-1.73916-1.53554-.60476-.01849-1.21092,.00845-1.81566-.01034-.6533-.0203-.99488-.3464-1.03083-1.00377-.03065-.56052-.00389-1.12392-.01653-1.68572-.03946-1.75299-.73375-3.21036-1.97127-4.43995-.45425-.45133-.85575-.51707-1.42819-.18324-1.43556,.83717-3.00056,1.30619-4.65966,1.45654-2.50469,.22698-4.85817-.25748-7.04223-1.5081-.46414-.26577-.87672-.27709-1.21101,.14121-.522,.65318-1.15859,1.27581-1.46277,2.02642-.3717,.9172-.607,1.95053-.62398,2.9384-.03975,2.31251-.08385,2.30414-2.32883,2.26541-.25904-.00447-.52053-.00993-.77721,.01838-.92471,.10197-1.51411,.72909-1.48811,1.56424,.026,.83483,.65209,1.42191,1.58848,1.45941,.5396,.02161,1.08074,.00325,1.62117,.00587,1.07069,.00518,1.30842,.28066,1.36436,1.33034,.05146,.9657,.09438,1.95219,.32407,2.88443,.8406,3.41187,4.12295,6.63884,8.91584,6.4705Zm4.6984,1.09194c-3.15411,1.19364-6.27302,1.17917-9.39139,.03408-.23777,2.3104,1.95889,4.61029,4.42033,4.69631,2.74631,.09597,5.07136-2.07772,4.97106-4.73039Zm-1.04329,8.78698c2.09828-1.21475,3.52765-4.67319,2.65937-6.57943-.72273,1.93311-2.06954,3.24991-3.82016,4.01352l1.16079,2.5659Zm-10.06204-6.69359c-.61876,2.60198,.78918,5.83057,2.71198,6.67381l1.1636-2.54706c-1.78613-.76757-3.09592-2.09789-3.87557-4.12675Z"/><path class="f" d="M49.99608,45.99103c-2.04935-.1073-3.62617-1.00284-4.64532-2.81164-.36872-.6544-.24724-1.23483,.27837-1.52075,.53676-.29199,1.02949-.09216,1.42684,.57866,1.41976,2.3969,4.47724,2.39365,5.89967-.00626,.39352-.66395,.90368-.86717,1.43096-.57004,.52491,.2958,.63641,.85391,.26524,1.51773-1.01471,1.81477-2.59295,2.70616-4.65575,2.8123Z"/><path class="f" d="M45.09911,36.40154c-.23189,.24748-.40939,.45802-.60878,.64524-.39929,.37492-.85377,.43205-1.28719,.09285-.43286-.33877-.51751-.81034-.21554-1.26765,.48997-.74203,1.10751-1.34211,2.0753-1.3585,1.00053-.01695,1.63519,.59405,2.14296,1.35372,.3067,.45886,.21744,.92804-.21349,1.26769-.43059,.33938-.887,.29248-1.28838-.08197-.20006-.18663-.37424-.40099-.60486-.65138Z"/><path class="f" d="M54.9125,36.40655c-.23713,.2522-.41414,.46193-.61338,.64784-.4021,.37523-.8578,.41791-1.28676,.08017-.43487-.3424-.4964-.8218-.20179-1.27082,.50089-.76342,1.14127-1.36648,2.13853-1.34925,.96571,.01669,1.5851,.61256,2.06972,1.35812,.29625,.45577,.21638,.92772-.21759,1.26703-.43384,.3392-.8862,.28138-1.28482-.09209-.19843-.18591-.37445-.39572-.60391-.64101Z"/><path class="d" d="M52.45635,79.90258c-.34576-.18094-.99193-.43211-1.5349-.82569-.64971-.47094-1.19829-.5211-1.82047,.00522-.27644,.23386-.61384,.40164-.93807,.57177-.69141,.3628-1.38229,.34543-2.00966-.13061-.62692-.4757-.83365-1.13301-.67038-1.89985,.11223-.52715,.20719-1.06159,.37213-1.57267,.11549-.35785,.00138-.55634-.2611-.76665-.4209-.33727-.82758-.6935-1.22594-1.0574-.579-.52893-.78545-1.18486-.54358-1.93637,.25111-.78023,.82901-1.18223,1.63229-1.26981,.36464-.03975,.73668-.1239,1.09496-.08697,.80133,.08261,1.16219-.32395,1.35571-1.02964,.09605-.35025,.26802-.68165,.42346-1.01323,.33348-.71134,.90154-1.10781,1.68589-1.10104,.78359,.00676,1.34591,.40995,1.66756,1.12783,.21152,.47209,.4329,.94191,.60605,1.42834,.13248,.3722,.32336,.55291,.74383,.55164,.51591-.00155,1.03312,.06964,1.54788,.12641,.77798,.08581,1.34074,.48608,1.59297,1.23248,.25138,.74389,.05867,1.40316-.50914,1.94824-.09341,.08968-.17938,.19684-.28989,.25747-1.23043,.6751-1.36085,1.62349-.94022,2.9026,.45085,1.37104-.38298,2.5158-1.97935,2.53793Zm1.6516-6.93653c-2.29479,.21359-3.62674-.74525-3.98207-2.9818-.53015,.89335-.82288,1.88308-1.48513,2.36476-.67973,.49438-1.72063,.49216-2.51935,.68678,.52442,.60637,1.3668,1.1961,1.61625,1.97556,.25572,.79905-.06873,1.78378-.14985,2.82297,1.60987-1.59864,3.25326-1.56219,4.97207-.02391-.89515-2.08936-.5016-3.66869,1.54808-4.84436Z"/><path class="d" d="M65.57001,79.90427c-.3468-.182-.99208-.43455-1.53535-.82796-.64924-.47017-1.19668-.5188-1.82077,.00471-.29371,.24637-.64929,.42783-.99591,.60038-.6747,.33586-1.34774,.30413-1.95134-.15833-.59954-.45934-.83177-1.0885-.68114-1.83555,.10652-.5283,.2007-1.06395,.36998-1.57319,.13473-.40528,.01175-.63614-.29835-.87398-.39333-.3017-.7577-.64182-1.1282-.9725-.6015-.53688-.84821-1.19321-.58958-1.97844,.26618-.80815,.86481-1.20341,1.69684-1.27442,.34402-.02936,.69309-.11697,1.03045-.08343,.7575,.0753,1.13832-.27357,1.33292-.96969,.10927-.39087,.30211-.7609,.47939-1.12969,.33121-.68899,.90153-1.04594,1.65476-1.04325,.72867,.0026,1.2848,.36139,1.60932,1.01528,.24884,.50138,.47045,1.01933,.66105,1.54553,.13514,.37306,.32798,.55012,.74788,.54836,.51595-.00217,1.03352,.06759,1.54809,.12636,.77629,.08865,1.33461,.48821,1.58974,1.23681,.25573,.75039,.04994,1.40084-.51406,1.94484-.10873,.10488-.20989,.22811-.33845,.3003-1.17081,.65739-1.31015,1.56076-.90268,2.79837,.4683,1.42236-.34385,2.57294-1.9646,2.5995Zm-4.99225-2.11067c1.74478-1.58107,3.38664-1.49203,4.96797,.01942-.09177-1.01034-.43456-1.98589-.18048-2.76738,.2585-.79508,1.10492-1.39901,1.63148-2.01377-.79727-.19065-1.82885-.17918-2.49135-.66796-.67015-.49442-.97493-1.48409-1.38764-2.17019-.41261,.69015-.71017,1.67935-1.37534,2.1634-.67654,.49232-1.71526,.48692-2.73802,.73393,1.99841,1.04045,2.49762,2.59139,1.57338,4.70256Z"/><path class="d" d="M41.44984,78.01077c.00663,1.44009-1.40444,2.31049-2.65665,1.67235-.53696-.27364-1.02701-.63994-1.56617-.90829-.18443-.0918-.49062-.08891-.67703,.00209-.50215,.24515-.96443,.57048-1.45232,.8467-.70572,.39953-1.41377,.38479-2.06445-.10425-.63273-.47555-.81227-1.14117-.6647-1.90432,.02863-.14805,.04262-.30609,.10608-.43914,.55995-1.17382,.18632-2.0075-.87817-2.66804-.58474-.36284-.9794-.90282-.97287-1.65521,.00833-.96027,.68271-1.71502,1.66386-1.82768,.34284-.03937,.69383-.11667,1.03049-.07981,.90456,.09902,1.30878-.37984,1.52604-1.16853,.09068-.32919,.25343-.64156,.40711-.94976,.33922-.68033,.90381-1.04394,1.65937-1.0383,.72937,.00543,1.28327,.36624,1.60848,1.01762,.24994,.50063,.47337,1.01821,.66009,1.54542,.13393,.37816,.33084,.54551,.74654,.54542,.51595-.00011,1.03305,.0695,1.54761,.12716,.77797,.08719,1.34487,.48987,1.58918,1.23674,.24163,.73867,.12734,1.51046-.5276,1.92798-1.38505,.88298-1.81276,1.98158-1.12451,3.49167,.05089,.11165,.03179,.2552,.03962,.33018Zm-4.42935-8.024c-.55602,.91807-.85841,1.89921-1.52286,2.37979-.67273,.48658-1.70358,.47801-2.7364,.72417,2.03673,1.04586,2.49889,2.60674,1.58038,4.70957,1.73652-1.53286,3.37883-1.55161,4.97537,.02955-.09147-1.01641-.43078-1.98619-.17879-2.76453,.25852-.7985,1.09523-1.40982,1.77827-2.22109-2.22824,.33556-3.53462-.63276-3.89597-2.85746Z"/></g><path class="d" d="M36.55062,64.46791h27.09304l1.83409,.03396c2.33196,.23047,4.32309,1.12122,5.95882,2.75933,2.65015,2.65401,3.44885,6.65637,2.02794,10.13341-1.42032,3.4756-4.79836,5.81154-8.54179,5.81872-9.88059,.01893-19.76124,.01566-29.64185,.00404-5.02028-.00591-9.15939-3.87677-9.42555-8.77296-.27282-5.01856,3.30528-9.27758,8.31534-9.89767,.1039-.01286,.20794-.0246,.22201-.02626l2.15795-.05255Zm13.47366,1.98555v.01645c-5.07819,0-10.15721-.05625-15.23428,.01876-3.70326,.05471-6.82359,3.24833-6.98878,6.95864-.19184,4.30885,3.13788,7.81489,7.46267,7.82435,5.96427,.01305,11.92859,.00339,17.89289,.00332,3.91135-.00004,7.82288,.02265,11.73402-.00643,4.65634-.03461,8.11992-4.37882,7.15908-8.93306-.73539-3.48564-3.69156-5.86286-7.37418-5.87731-4.88374-.01917-9.7676-.00473-14.65141-.00473Z"/></g></svg>