<?xml version="1.0" encoding="UTF-8"?><svg xmlns="http://www.w3.org/2000/svg" xmlns:xlink="http://www.w3.org/1999/xlink" viewBox="0 0 100 100"><defs><style>.d{fill:#f26522;}.e{fill:none;stroke:#666;stroke-linecap:round;stroke-linejoin:round;stroke-width:3px;}.f{fill:gray;}.g{fill:#666;}</style><symbol id="a" viewBox="0 0 99 99"><circle class="e" cx="49.5" cy="49.5" r="48"/></symbol></defs><g id="b"><use width="99" height="99" transform="translate(.5 .5)" xlink:href="#a"/></g><g id="c"><g><path class="f" d="M34.59539,86.13301c-.67767-.40141-.91092-.98646-.9056-1.77713,.02786-4.14521,.00233-8.29077,.02675-12.43602,.00301-.51034,.19348-1.01959,.30118-1.54951-1.17829-1.03307-2.5216-2.08838-3.72462-3.28476-10.51123-10.4533-10.31808-26.62751-1.5644-37.30409,4.9821-6.07651,11.49171-9.38843,19.31211-9.85177,9.6434-.57135,17.72865,2.74914,23.74417,10.43375,4.47671,5.71884,6.42242,12.32857,5.83568,19.56805-.83247,10.27142-6.1095,17.64008-15.1202,22.44039-.48673,.25929-.64647,.47132-.62109,1.09108,.04895,1.19523-.12012,2.40428-.25673,3.60098-.1712,1.4998-.41472,2.99119-.60188,4.48936-.32323,2.58735-2.35786,4.4395-4.96039,4.46206-2.00777,.01741-4.01586,.01153-6.02373,.00071-1.34954-.00727-2.65127-.32225-3.70961-1.14752-1.04124-.81193-2.15576-.86426-3.43874-.73844,.04949,.81365-.10593,1.56858-.9086,2.00289h-7.38431Zm9.01589-17.90839c-.06211-.05301-.0889-.08877-.12445-.10387-.11877-.05041-.24067-.09346-.3614-.13926-8.81337-3.34309-13.85954-9.66801-14.48064-19.09622-.52895-8.02947,2.65438-14.49822,9.30243-19.14847,1.84942-1.29365,3.89764-2.21123,6.06955-2.83269,.68801-.19687,1.35213,.16717,1.56486,.795,.22152,.65377-.06442,1.30964-.7142,1.6147-.17468,.08202-.36097,.14135-.54538,.20031-7.52034,2.40445-12.50108,8.70836-13.12512,16.61379-.70306,8.90645,4.66903,16.85213,13.19569,19.5481,.50828,.16071,.78722,.12595,1.08425-.37235,.90535-1.51883,1.86738-3.00421,2.82242-4.49295,.48207-.75147,1.10296-.92218,1.88571-.53686,.65752,.32366,1.31706,.64736,1.95126,1.0134,1.53662,.88689,2.36006,2.22676,2.45883,4.00404,.01133,.20391,.02097,.40792,.03349,.65322,.20548-.04055,.3521-.06194,.49475-.0987,9.63185-2.48204,15.46611-12.7397,13.44605-22.30307-1.24839-5.91011-4.78411-10.13109-10.08151-12.90724-1.00431-.52632-2.11336-.85419-3.17798-1.2635-.65329-.25116-1.0031-.74866-.94271-1.38017,.05596-.58506,.47372-1.0795,1.05977-1.14049,.30791-.03204,.64272,.04377,.94558,.13593,9.13358,2.7795,17.25707,12.38367,14.73778,24.70378-1.79152,8.76106-8.5525,15.72908-17.30095,17.10374-.18867,.02964-.36264,.15281-.54346,.23235,1.26382,.13559,2.47193,.133,3.68003,.13636,1.0914,.00304,2.10142,.30535,2.95432,.98028,.40543,.32084,.6991,.31246,1.14361,.09545,10.41573-5.08504,17.51835-17.59014,12.64204-30.96885-5.04426-13.83952-19.52058-20.70085-33.74613-14.77497-11.03789,4.59801-16.41784,16.46625-14.71878,27.18176,1.31589,8.29893,5.92684,14.27384,13.24124,18.25184,.21935,.11929,.47975,.21746,.72442,.22586,.79778,.02737,1.60425,.07106,2.39297-.01847,.40544-.04602,.85932-.28282,1.1492-.57459,.37008-.37249,.5966-.88762,.88241-1.3372Zm6.32429-5.13434c-.134,.20127-.26849,.39437-.394,.59314-1.46245,2.31628-2.88826,4.65693-4.40668,6.93589-.45088,.67671-1.11285,1.2455-1.77286,1.73631-.32941,.24496-.50825,.39847-.50493,.82358,.02006,2.56868,.00916,5.1376,.01176,7.70644,.00019,.18614,.02533,.37226,.03757,.54045,.09063,.02688,.13022,.04771,.17045,.04902,.19405,.00632,.38856,.01587,.58237,.00895,1.46328-.05222,2.78044,.26119,4.01229,1.15404,.6229,.45149,1.50405,.71058,2.28387,.74982,2.04562,.10294,4.09986,.05175,6.15041,.03339,1.16632-.01044,2.13841-.83348,2.30513-1.97643,.33307-2.28336,.65566-4.5692,.92115-6.86113,.1952-1.68515-.87817-2.8226-2.57377-2.82947-1.46789-.00595-2.93609,.01619-4.40365-.00664-1.63056-.02536-2.58977-1.62478-1.849-3.07242,.35339-.69061,.77656-1.34607,1.11802-2.04202,.17567-.35804,.32516-.76643,.34179-1.15821,.0586-1.37988-.9238-1.92447-2.02994-2.3847Zm-9.70174,20.42545v-10.71176h-3.89904v10.71176h3.89904Z"/><path class="d" d="M61.25382,71.24813c-.01239-.00757-.2419-.2311-.33342-.3199-.36077-.35005-.36045-.37397-.81552-.66683-.02966-.02063-.14432-.08086-.20461-.11758-.9289-.56579-1.86292-.97723-2.95428-.98029-1.20813-.00336-2.41626-.00079-3.68005-.13635,.18085-.07953,1.49829-3.10938,1.36267-3.08264-.01251-.2453-.02216-.44934-.03351-.65326-.09875-1.77722-.92218-3.11713-2.4588-4.00403-.63422-.36603-1.29376-.6897-1.95129-1.01337-.78271-.38531-1.40363-.2146-1.88568,.53687-.95508,1.48871-1.91711,2.97412-2.82245,4.49292-.297,.49829-1.92773,2.86798-1.8656,2.92096-.28583,.44958-.51233,.96472-.88239,1.33722-.28992,.29175-.74377,.52856-1.14923,.57458-.7887,.08954-1.59515,.04584-2.39294,.01849-.24469-.00842-5.31653,.08612-5.16901,.21545-.10767,.52991-.29816,1.03912-.30115,1.5495-.02441,4.14526,.0011,8.29083-.02679,12.43604-.00531,.79065,.22797,1.37573,.90564,1.7771h7.38428c.80267-.43427,.95813-1.18921,.90863-2.00287,1.28296-.12579,2.39752-.07349,3.43872,.73846,1.05835,.82526,2.36011,1.1402,3.70966,1.14752,2.00781,.0108,4.01593,.01666,6.02368-.00073,2.60254-.02258,4.63715-1.87469,4.96039-4.46204,.18719-1.49817,.43066-2.98956,.60187-4.48938,.13666-1.19672,.30573-2.40576,.25677-3.60101-.01111-.27069,.00864-1.19656-.62558-2.21484Zm-21.01999,12.26763h-3.89905v-10.71179h3.89905v10.71179Zm19.09827-8.93201c-.2655,2.29193-.58807,4.57776-.92114,6.86115-.16675,1.14294-1.13879,1.966-2.30511,1.97644-2.05054,.01837-4.1048,.06952-6.15039-.03339-.77985-.03925-1.66101-.29834-2.28387-.74982-1.23187-.89288-2.54907-1.2063-4.01233-1.15405-.19379,.0069-.38831-.00262-.58234-.00897-.04028-.00128-.07983-.02209-.17047-.04901-.01227-.16815-.03741-.35431-.0376-.54047-.00256-2.56879,.0083-5.13776-.01172-7.70642-.00336-.42511,.17548-.57861,.50488-.82355,.66003-.49084,1.32202-1.05963,1.77289-1.73633,1.51843-2.27899,2.94421-4.61963,4.40668-6.93591,.12549-.19873,.26001-.39185,.39398-.59314,1.10614,.46027,2.08856,1.00482,2.02997,2.3847-.01666,.39178-.16614,.80017-.3418,1.1582-.34149,.69598-.76465,1.35144-1.11804,2.04205-.74078,1.44763,.21844,3.04706,1.849,3.07239,1.46759,.02283,2.93579,.00067,4.40369,.00665,1.69556,.0069,2.76892,1.14435,2.57373,2.82947Z"/><path class="d" d="M41.66513,53.60087c.0493-1.09986,.12338-2.19955,.13111-3.2997,.00202-.28817-.14038-.62545-.32122-.85908-1.29462-1.67256-2.61707-3.32358-3.92915-4.98264-.85086-1.07587-.55235-2.02042,.75726-2.38835,1.99167-.55956,3.982-1.12425,5.97896-1.66434,.46081-.12463,.78973-.33604,1.05708-.75008,1.12352-1.73995,2.28027-3.45849,3.42991-5.18151,.78446-1.17571,1.7517-1.16692,2.54595,.02216,1.15046,1.72239,2.30794,3.44033,3.43419,5.17847,.25464,.39298,.56145,.59869,1.00328,.71814,2.01799,.5456,4.02943,1.11558,6.04128,1.68368,1.25425,.35418,1.56513,1.32251,.75085,2.35808-1.30746,1.66277-2.63843,3.30728-3.92687,4.98455-.20063,.26118-.32874,.65769-.32002,.98711,.05601,2.11461,.16586,4.22772,.24518,6.34181,.05081,1.3542-.77891,1.9542-2.03896,1.48621-1.97981-.73533-3.95258-1.49026-5.94195-2.19863-.3075-.10949-.7209-.10912-1.02867,.00011-2.01029,.71344-4.00286,1.47661-6.00552,2.21183-1.22926,.45129-2.05387-.16988-1.99068-1.47701,.02605-.53905,.04712-1.07855,.05717-1.61809,.00964-.51728,.00208-1.03489,.00208-1.55236l.06874-.00037Zm2.70362,1.55793c.12108-.04228,.34082-.11514,.55782-.19542,1.45447-.53808,2.89612-1.11537,4.36975-1.59432,.45163-.14679,1.02842-.14636,1.48202-.00378,1.27208,.39984,2.50921,.91059,3.76139,1.37414,.41571,.1539,.83529,.29738,1.17841,.41912,0-1.24698,.1298-2.46964-.03016-3.65313-.24529-1.81485,.26091-3.25442,1.52877-4.55012,.81955-.83755,1.47724-1.83348,2.26708-2.83396-1.70704-.47976-3.30895-.96233-4.9295-1.37091-.73973-.1865-1.26094-.54326-1.66981-1.19226-.90173-1.43128-1.86351-2.82472-2.83678-4.28769-.17118,.24139-.29809,.4111-.41539,.58722-.87255,1.31013-1.71374,2.64274-2.63291,3.91922-.26584,.36918-.7156,.68731-1.1477,.83916-1.03403,.36338-2.10833,.61174-3.16514,.91091-.67207,.19026-1.34191,.38838-2.09242,.60609,.96028,1.21398,1.79541,2.39889,2.76646,3.45935,.88973,.97165,1.16157,2.00246,1.0383,3.29913-.13339,1.40302-.03021,2.82852-.03021,4.26726Z"/><path class="g" d="M51.31528,27.34c-.00098,.70551-.56273,1.26155-1.27708,1.2641-.69979,.0025-1.2885-.56713-1.29892-1.2568-.01029-.68155,.57661-1.29713,1.25193-1.31311,.70036-.01657,1.32505,.59951,1.32407,1.30581Z"/></g></g></svg>