<?xml version="1.0" encoding="UTF-8"?><svg xmlns="http://www.w3.org/2000/svg" xmlns:xlink="http://www.w3.org/1999/xlink" viewBox="0 0 100 100"><defs><style>.d{fill:#f26522;}.e{fill:none;stroke:#666;stroke-linecap:round;stroke-linejoin:round;stroke-width:3px;}.f{fill:gray;}</style><symbol id="a" viewBox="0 0 99 99"><circle class="e" cx="49.5" cy="49.5" r="48"/></symbol></defs><g id="b"><use width="99" height="99" transform="translate(.5 .5)" xlink:href="#a"/></g><g id="c"><g><path class="f" d="M19.94256,48.32584c1.33515-3.27072,2.66796-6.5424,4.00622-9.81185,1.00458-2.45426,2.60368-3.53234,5.2428-3.53361,5.40054-.00259,10.80108-.00112,16.20162,.00049,.21459,.00006,.433-.00328,.64302,.03313,.5264,.09124,.84902,.48634,.79961,.98589-.05171,.52277-.36398,.82258-.88249,.84351-.68378,.0276-1.36997,.0312-2.05382,.00747-.38924-.01351-.55321,.09204-.57358,.5122-.17904,3.69308-.38775,7.38472-.56587,11.07783-.06974,1.44604,.96403,2.68615,2.28652,2.81471,1.38096,.13424,2.59982-.80541,2.74646-2.29855,.10222-1.04078-.02673-2.1058-.07254-3.15913-.04164-.95755-.11679-1.91361-.16524-2.87092-.0376-.74294,.28923-1.18113,.87961-1.21114,.60157-.03058,.95275,.36085,.99461,1.10778,.10836,1.9337,.21075,3.86777,.3274,5.80097,.09433,1.56342,.97296,2.47495,2.52098,2.64184,.5986,.06454,.96295,.44777,.94057,.98931-.02238,.54144-.41949,.89863-1.02426,.8894-1.1508-.01756-2.12606-.46257-2.94147-1.2629-.15095-.14815-.2664-.33246-.40282-.50591-2.13886,2.46604-5.21108,2.22844-7.03791,.0427-.92258,1.06203-2.04541,1.73665-3.49388,1.73107-1.42683-.00549-2.55321-.63194-3.48592-1.74101-.93979,1.08192-2.0633,1.74513-3.50729,1.74048-1.42896-.0046-2.54846-.64153-3.36519-1.59149-.81085,.48296-1.53767,1.08615-2.37329,1.3805-2.19043,.77158-4.6096-.53509-5.40129-2.79572-.07569-.21612-.16147-.42869-.24257-.64291v-1.17415Zm16.0571-11.46753c-1.14103,0-2.21179,.02249-3.28079-.0112-.42054-.01325-.56951,.14749-.67768,.52466-1.04352,3.63877-2.10706,7.2718-3.15372,10.90967-.06744,.23441-.09114,.50307-.05286,.74264,.2146,1.34296,1.25011,2.24992,2.52277,2.23995,1.23827-.0097,2.23702-.91937,2.47087-2.2381,.48738-2.74848,.97959-5.4961,1.47008-8.24403,.22885-1.2821,.4583-2.5641,.70133-3.9236Zm5.49848-.00005c-1.05174,0-2.0261,.02304-2.99853-.01014-.45666-.01558-.63685,.11408-.71926,.58652-.61766,3.54059-1.26266,7.07646-1.91006,10.61179-.29014,1.58439,.65663,3.02344,2.13283,3.2047,1.48203,.18198,2.74169-.92513,2.84527-2.52648,.12116-1.87324,.22677-3.74754,.32879-5.62195,.11143-2.04737,.21103-4.09538,.32097-6.24445Zm-11.25633,.00806c-.56574,0-1.04959-.01299-1.53254,.00245-1.40508,.04494-2.35841,.77311-2.88585,2.03521-1.30245,3.11652-2.58237,6.24258-3.84555,9.37521-.12228,.30325-.1504,.69924-.07544,1.01761,.29655,1.25951,1.38041,2.04238,2.62584,1.96273,1.18425-.07574,2.17547-1.07285,2.33889-2.33383,.04994-.38534,.10981-.77425,.2172-1.14651,.8496-2.94501,1.71287-5.88607,2.56926-8.82913,.19445-.66825,.37844-1.33954,.58819-2.08374Z"/><path class="d" d="M66.55636,19.44172c.95413,.19567,1.92658,.32788,2.85944,.59721,6.59446,1.90388,10.99816,8.11616,10.61892,14.97786-.13036,2.35858-.78807,4.57962-1.99059,6.61888-3.92184,6.65077-7.85564,13.29449-11.78719,19.93953-.59956,1.01337-1.3423,1.012-1.9412-.00082-3.93985-6.66293-7.89405-13.31745-11.81235-19.99303-5.15505-8.78263,.23851-20.27029,10.26965-21.91795,.40137-.06593,.80018-.14743,1.20018-.22167h2.58313Zm-1.25539,40.07289c.16746-.27694,.29993-.4916,.42817-.70876,3.52695-5.97244,7.05304-11.94539,10.58025-17.91767,1.50042-2.54051,2.10287-5.26772,1.77416-8.20969-.80078-7.16695-7.62933-12.36047-14.76887-11.21479-9.03856,1.45042-13.74296,11.46803-9.08561,19.35902,3.57518,6.05744,7.16038,12.10896,10.74178,18.16273,.09694,.16386,.2014,.32327,.33011,.52916Z"/><path class="f" d="M26.25944,77.66265h38.09433v-.68521c.00001-3.89379-.00116-7.78759,.00273-11.68138,.00025-.25206,.00127-.51479,.06842-.75387,.13569-.48315,.50317-.68893,.98602-.641,.46296,.04596,.74433,.32212,.80359,.79224,.0219,.17376,.01573,.35155,.01576,.5275,.00075,4.32426,.00118,8.64853,.00023,12.97279-.00025,1.12168-.24882,1.36445-1.38752,1.36445-13.03149,.00014-26.06298,.00015-39.09447-.00003-1.11949-.00001-1.36608-.24903-1.36615-1.38448-.00049-7.61149-.00035-15.22297,.00029-22.83446,.00002-.19553-.01004-.39354,.01614-.5861,.06351-.46715,.34739-.73977,.80999-.78773,.46071-.04777,.81628,.15362,.96064,.59759,.08212,.25256,.08644,.53792,.08661,.80853,.00425,7.181,.00338,14.362,.00338,21.543v.74816Z"/><path class="f" d="M31.76649,69.81787c0-2.0338-.09017-4.0725,.02015-6.10029,.18724-3.44179,3.07161-6.04049,6.51541-6.00653,3.40869,.03361,6.28867,2.73044,6.37117,6.17306,.09744,4.06616,.03426,8.13629,.0284,12.20467-.00092,.63734-.40758,1.03062-.96934,1.01776-.55595-.01273-.89887-.40565-.89967-1.07507-.00467-3.91199,.00701-7.82403-.00644-11.73598-.00804-2.33834-1.53472-4.18686-3.78767-4.63962-2.49631-.50167-5.05509,1.33845-5.36461,3.86679-.04738,.38703-.06608,.77982-.0666,1.16999-.00488,3.65771-.00255,7.31544-.0038,10.97316-.00007,.21485,.0087,.4331-.02428,.64387-.07647,.4887-.37724,.76786-.87055,.79092-.49676,.02323-.81869-.23296-.92978-.71542-.04752-.20639-.04734-.42661-.0477-.64059-.00328-1.97555-.00194-3.95112-.00194-5.92668l.03724-.00005Z"/><path class="f" d="M55.03493,70.54657c-1.64271,0-3.28543,.00238-4.92813-.00091-.93774-.00188-1.24512-.29695-1.24679-1.21554-.00477-2.62051-.0048-5.24104,0-7.86155,.00167-.9113,.31855-1.22815,1.24783-1.22986,3.30497-.00607,6.60997-.00612,9.91494,.00006,.92854,.00174,1.24175,.32066,1.24272,1.23118,.0028,2.62052,.00283,5.24104-.00002,7.86156-.00099,.91305-.30834,1.21222-1.24375,1.21412-1.66226,.00338-3.32454,.00095-4.98681,.00095Zm-4.27146-1.9055h8.58264v-6.47896h-8.58264v6.47896Z"/><path class="f" d="M55.04981,73.71599c-2.15145,.00036-4.30291-.00342-6.45434,.0032-.49444,.00152-.89301-.1348-1.06523-.63919-.17767-.52035,.10777-1.04268,.65436-1.18014,.22342-.05618,.46422-.05909,.69714-.05927,4.12687-.00325,8.25374-.00239,12.38062-.00211,.13688,0,.27461-.00602,.41048,.00657,.59267,.05493,.9867,.4515,.97252,.97133-.01458,.53436-.3991,.8928-1.02386,.89554-2.19053,.00961-4.38112,.00373-6.57168,.00408Z"/><path class="f" d="M39.80159,69.2547c.49118,.01031,.92639,.4653,.9163,.95794-.01042,.50886-.43822,.913-.95505,.90222-.51785-.0108-.92607-.43128-.91348-.94092,.01233-.49892,.45846-.9296,.95223-.91924Z"/><path class="d" d="M65.37392,25.24587c4.96972,.06751,8.95468,4.11909,8.88143,9.02995-.07526,5.04621-4.13201,8.96739-9.19664,8.88931-4.89553-.07548-8.79416-4.17513-8.72496-9.17483,.06713-4.85012,4.16165-8.8107,9.04017-8.74443Zm-7.16477,8.95436c-.00192,3.91952,3.16367,7.08185,7.08952,7.08223,3.91117,.00038,7.10474-3.20104,7.08295-7.10035-.0217-3.8817-3.18908-7.04645-7.07172-7.06583-3.89722-.01945-7.09884,3.1746-7.10075,7.08395Z"/><path class="d" d="M65.30374,38.48986c-2.39048,.0059-4.28819-1.88131-4.29408-4.27031-.00585-2.37444,1.90624-4.30952,4.26622-4.31752,2.34711-.00795,4.30193,1.93621,4.31201,4.28849,.01013,2.3621-1.91445,4.29349-4.28415,4.29934Zm-.03701-1.87815c1.35056,.01059,2.43735-1.05512,2.44333-2.39593,.00591-1.32602-1.10152-2.43416-2.42552-2.42707-1.3202,.00707-2.38258,1.06175-2.39859,2.3812-.01654,1.36364,1.02431,2.43117,2.38078,2.4418Z"/></g></g></svg>