<svg xmlns="http://www.w3.org/2000/svg" width="139.896" height="104.728" viewBox="0 0 139.896 104.728"><g transform="translate(-1544 -1604.333)"><g transform="translate(477 21.789)"><g transform="translate(1089.013 1582.544)"><g transform="translate(78.526 44.642)"><path d="M378.33,229.078h26.188v9.1a4.1,4.1,0,0,1-4.083,4.086h-9.42L385.4,245.1l-7.066-2.838Z" transform="translate(-378.33 -229.078)" fill="#fbeedf" fill-rule="evenodd"/></g><g transform="translate(47.369 57.825)"><path d="M259.374,292.6h12.685v5.835a2.551,2.551,0,0,1-2.542,2.544h-41.3c0-3.668,0-5.535,2.806-5.535l5.589-.006c3.518-.006,5.825-.907,7.113-2.838Z" transform="translate(-228.217 -292.596)" fill="#fbeedf" fill-rule="evenodd"/></g><g transform="translate(30.293 66.204)"><path d="M168,332.965h36.319c2.13,3.71,3.842,8.167,2.365,16.693-2.471-8.408-27.57-5.052-30.147,4.652H148.847c-1.047-2.373-2.036-4.717-2.9-7.084h7.808C169.545,341.268,164.467,343.923,168,332.965Z" transform="translate(-145.946 -332.965)" fill="#fbeedf" fill-rule="evenodd"/></g><g transform="translate(49.172 21.898)"><path d="M237.842,141.014a59.266,59.266,0,0,0,2.1,8.049l7.984,3.128,8.9-3.128c-.312-16.846-6.607-24.925-11.961-27.539a13,13,0,0,0-3.907-2.023s-2.6,4.16-2.736,4.16a22.344,22.344,0,0,0-1.312,8.832Z" transform="translate(-236.905 -119.501)" fill="#fbeedf" fill-rule="evenodd"/></g><g transform="translate(43.536 51.46)"><path d="M235.312,261.929H218.426c-3.889.424-8.672,3.386-8.672,12.56V284.1h8.814v-7.431c0-3.668,0-5.535,2.806-5.535l5.589-.006c3.518-.006,5.825-.907,7.113-2.838C235.071,266.8,235.453,264.7,235.312,261.929Z" transform="translate(-209.754 -261.929)" fill="#fbeedf" fill-rule="evenodd"/></g><g transform="translate(54.486 23.921)"><path d="M277.116,156.786c-.312-16.846-6.607-24.925-11.961-27.539a10.808,10.808,0,0,1-2.648,1.36c4.742,3.586,9.5,11.6,9.767,26.179Z" transform="translate(-262.507 -129.247)" fill="#f8971d" fill-rule="evenodd" opacity="0.12"/></g><g transform="translate(59.304 51.46)" opacity="0.12"><path d="M295.512,261.929H290.67c.141,2.773-.241,4.876-1.236,6.365a7.274,7.274,0,0,1-3.713,2.838h1.441c3.518-.006,5.825-.907,7.113-2.838C295.271,266.8,295.654,264.7,295.512,261.929Z" transform="translate(-285.722 -261.929)" fill="#f8971d" fill-rule="evenodd"/></g><g transform="translate(78.526 31.44)"><path d="M382.413,165.474h18.021a4.094,4.094,0,0,1,4.083,4.086v6.76H378.33v-6.76A4.1,4.1,0,0,1,382.413,165.474Z" transform="translate(-378.33 -165.474)" fill="#fbeedf" fill-rule="evenodd"/></g><g transform="translate(78.526 40.249)"><path d="M378.33,207.914h26.188v6.424H378.33Z" transform="translate(-378.33 -207.914)" fill="#fbeedf" fill-rule="evenodd"/></g><g transform="translate(95.165 31.44)" opacity="0.12"><path d="M462.577,174.283h5.466V169.56a4.1,4.1,0,0,0-4.083-4.086h-5.466a4.094,4.094,0,0,1,4.083,4.086Z" transform="translate(-458.494 -165.474)" fill="#f8971d" fill-rule="evenodd"/></g><g transform="translate(99.248 40.249)" opacity="0.12"><path d="M478.166,214.338h5.466v-6.424h-5.466v6.424Z" transform="translate(-478.166 -207.914)" fill="#f8971d" fill-rule="evenodd"/></g><g transform="translate(95.165 46.673)" opacity="0.12"><path d="M462.577,238.865v7.066a4.094,4.094,0,0,1-4.083,4.086h5.466a4.081,4.081,0,0,0,4.083-4.086v-7.066h-5.466Z" transform="translate(-458.494 -238.865)" fill="#f8971d" fill-rule="evenodd"/></g><g transform="translate(60.887 71.904)"><path d="M293.347,376.072a15.4,15.4,0,0,1,30.148-4.652,15.8,15.8,0,0,1,.677,4.157c.018.565-.371.495-.9.495Q308.312,376.072,293.347,376.072Z" transform="translate(-293.347 -360.427)" fill="#fbeedf" fill-rule="evenodd"/></g><g transform="translate(64.764 87.55)"><path d="M312.028,435.8h23.464a11.738,11.738,0,0,1-23.464,0Z" transform="translate(-312.028 -435.804)" fill="#fbeedf" fill-rule="evenodd"/></g><g transform="translate(4.915 85.047)"><path d="M23.947,423.747l20.187,4.646a10.357,10.357,0,1,1-20.187-4.646Z" transform="translate(-23.681 -423.747)" fill="#fbeedf" fill-rule="evenodd"/></g><g transform="translate(1.557 73.277)"><path d="M9.615,373.153A14.09,14.09,0,0,1,22.6,367.111c9.131,1.931,12.1,7.39,12.7,14.2a14.1,14.1,0,0,1-.312,2.785c-.059.259-.23.153-.512.088l-3.159-.724-20.187-4.646-1.512-.347L7.5,377.975a13.975,13.975,0,0,1,2.112-4.823Z" transform="translate(-7.503 -367.042)" fill="#fbeedf" fill-rule="evenodd"/></g><g transform="translate(16.637 43.464)"><path d="M80.154,253.264l8.155-28.217L91.98,223.4l4.107,1.643c-5.4,14.956-3.889,25.4-.247,35.359.871,2.367,1.859,4.711,2.9,7.084H92.874Z" transform="translate(-80.154 -223.404)" fill="#fbeedf" fill-rule="evenodd"/></g><g transform="translate(41.265 11.432)"><path d="M199.436,71.113,209,69.076c.971.088,3.748,2.42,3.748,3.88l-2.036,10.352a9.345,9.345,0,0,1-2.677.395,9.25,9.25,0,0,1-8.6-12.589Z" transform="translate(-198.812 -69.076)" fill="#ffece4" fill-rule="evenodd"/></g><g transform="translate(38.8 1.557)"><path d="M186.935,33.413a11.652,11.652,0,1,1,23.3,0,12.466,12.466,0,0,1-4.966,10.452,11.111,11.111,0,0,1-3.965,1.743V35.256c0-1.46-.741-1.755-1.712-1.843H186.935Z" transform="translate(-186.935 -21.501)" fill="#fbeedf" fill-rule="evenodd"/></g><g transform="translate(44.354 1.557)" opacity="0.12"><path d="M213.694,23.262a11.369,11.369,0,0,1,6.1-1.761,11.778,11.778,0,0,1,11.649,11.912,12.466,12.466,0,0,1-4.966,10.452,10.808,10.808,0,0,1-2.7,1.378,13.549,13.549,0,0,0,3.648-9.627,12.32,12.32,0,0,0-12.179-12.454,11.246,11.246,0,0,0-1.548.1Z" transform="translate(-213.694 -21.501)" fill="#f8971d" fill-rule="evenodd"/></g><g transform="translate(38.087 73.635)"><path d="M188.947,368.767h8.814v5.553c0,1.19-.647,1.278-1.6,1.278h-12.65C183.258,370.027,186.629,368.767,188.947,368.767Z" transform="translate(-183.497 -368.767)" fill="#fbeedf" fill-rule="evenodd"/></g><g transform="translate(24.891 45.107)" opacity="0.12"><path d="M127.352,266.678c-3.642-9.963-5.148-20.4.247-35.359h-4.148c-5.4,14.956-3.895,25.4-.247,35.359.865,2.367,1.853,4.711,2.9,7.084h4.148c-1.042-2.373-2.03-4.717-2.9-7.084Z" transform="translate(-119.921 -231.319)" fill="#f8971d" fill-rule="evenodd"/></g><g transform="translate(12.789 73.278)"><path d="M78.176,381.309l-12.7-14.2a13.875,13.875,0,0,0-3.866.153l12.2,13.643a14.051,14.051,0,0,1-.241,2.408l.618.141,3.159.724c.282.065.453.171.512-.088A14.043,14.043,0,0,0,78.176,381.309Z" transform="translate(-61.614 -367.044)" fill="#f8971d" fill-rule="evenodd" opacity="0.12"/></g><g transform="translate(52.35 66.204)"><path d="M288.536,332.965H252.217v3.2h29.841c2.43,0,3.583,1.048,4.53,3.174a14.746,14.746,0,0,1,1.206,4.669,15.607,15.607,0,0,1,3.107,5.653C292.378,341.132,290.666,336.675,288.536,332.965Z" transform="translate(-252.217 -332.965)" fill="#ffc269" fill-rule="evenodd"/></g><g transform="translate(72.919 71.904)" opacity="0.12"><path d="M366.325,365.768a15.289,15.289,0,0,0-11.626-5.341,15.6,15.6,0,0,0-3.383.371,15.541,15.541,0,0,1,12.02,14.78c.012.389-.165.477-.447.495h6.319c.53,0,.918.071.9-.495a15.79,15.79,0,0,0-.677-4.157c-.012-.041-.023-.077-.035-.112V371.3a15.618,15.618,0,0,0-3.071-5.535Z" transform="translate(-351.316 -360.427)" fill="#f8971d" fill-rule="evenodd"/></g><g transform="translate(4.914 85.047)" opacity="0.12"><path d="M43.512,428.252l-19.569-4.5a10.293,10.293,0,0,0-.259,2.762l15.533,3.574.612.141a10.3,10.3,0,0,1-3.989,6.053,10.35,10.35,0,0,0,8.29-7.884Z" transform="translate(-23.676 -423.747)" fill="#f8971d" fill-rule="evenodd"/></g><g transform="translate(64.764 87.55)"><path d="M331.755,435.8H312.027a12.179,12.179,0,0,0,.724,3.539h17.48a12.13,12.13,0,0,1-2.877,7.243,11.98,11.98,0,0,0,8.137-10.782Z" transform="translate(-312.027 -435.804)" fill="#f8971d" fill-rule="evenodd" opacity="0.12"/></g><g transform="translate(80.697 57.825)" opacity="0.12"><path d="M399.3,298.431V292.6h-7.972v5.835a2.551,2.551,0,0,1-2.542,2.544h7.972A2.551,2.551,0,0,0,399.3,298.431Z" transform="translate(-388.79 -292.596)" fill="#f8971d" fill-rule="evenodd"/></g><g transform="translate(41.312 13.469)"><path d="M199.039,81.252H206.9c.971.088,1.712.389,1.712,1.849v8.367a9.441,9.441,0,0,0,2.283-.383V80.734c0-1.46-.741-1.755-1.712-1.843h-9.567A9.247,9.247,0,0,0,199.039,81.252Z" transform="translate(-199.039 -78.891)" fill="#ffddce" fill-rule="evenodd"/></g><g transform="translate(20.867 35.833)"><path d="M102.759,187.029l11.008,3.639c.541.483-.071,5.405-.435,5.246h-12.8v-8.1C100.535,186.217,101.365,186.57,102.759,187.029Z" transform="translate(-100.535 -186.642)" fill="#fbeedf" fill-rule="evenodd"/></g><g transform="translate(31.442 39.448)"><path d="M159.271,209.715h-5.566c-2.989,0-3.077-4.958.435-5.247l5.13-.412,1.377,2.915Z" transform="translate(-151.484 -204.056)" fill="#fbeedf" fill-rule="evenodd"/></g><g transform="translate(39.229 32.091)"><path d="M198.952,171.411l1.842-1.584c4.613-3.975,10.443,2.732,4.277,6.736l-5.189,3.368-2.612,1.7H189v-5.659l5.136-.418Z" transform="translate(-189.003 -168.611)" fill="#fbeedf" fill-rule="evenodd"/></g><g transform="translate(31.44 42.316)" opacity="0.12"><path d="M159.264,220.663v-2.744H152a2.292,2.292,0,0,1-.5-.047,2.3,2.3,0,0,0,2.2,2.791h5.566Z" transform="translate(-151.475 -217.872)" fill="#f8971d" fill-rule="evenodd"/></g><g transform="translate(39.23 32.771)" opacity="0.12"><path d="M205.072,179.157c3.73-2.426,3.071-5.835.947-7.272.171,1.472-.529,3.162-2.648,4.534l-4.042,2.62-1.141.748-2.612,1.69H189v2.744h8.266l2.612-1.7Z" transform="translate(-189.004 -171.885)" fill="#f8971d" fill-rule="evenodd"/></g><g transform="translate(27.99 38.4)" opacity="0.12"><path d="M140.961,200.466l-4.43-1.46a6.735,6.735,0,0,0-1.247,6.707h5.242a2.3,2.3,0,0,1-2.2-2.791A2.761,2.761,0,0,1,140.961,200.466Z" transform="translate(-134.852 -199.006)" fill="#f8971d" fill-rule="evenodd"/></g><path d="M100.631,43.883H82.609a5.648,5.648,0,0,0-5.64,5.643V70.269H70.228a15.484,15.484,0,0,0,.422-4.837h0c-.146-7.9-1.58-14.557-4.261-19.788a21.232,21.232,0,0,0-6.6-7.952,14.435,14.435,0,0,0,3.862-10.223,13.209,13.209,0,1,0-26.412,0A1.557,1.557,0,0,0,38.8,29.025h1.058a10.961,10.961,0,0,0-.149,1.794,10.809,10.809,0,0,0,8.684,10.588,26.237,26.237,0,0,0-.775,6.772l-3.883,3.339-9.447.764-10.9-3.6c-1-.332-2.131-.707-3.113,0A2.765,2.765,0,0,0,19.31,51v8.1a1.557,1.557,0,0,0,1.557,1.557H22.72l-2.843,9.823a1.557,1.557,0,0,0,2.991.866l3.093-10.688h4.426c-5.5,16.786-2.364,27.99,2.464,39.329h-2.8L18.4,86.96l2.465-8.514a1.557,1.557,0,0,0-2.991-.866l-2.357,8.144A15.658,15.658,0,0,0,.04,97.862a1.557,1.557,0,0,0,1.168,1.866l2.21.509a11.911,11.911,0,0,0,23.018,5.3l1.744.4a2.033,2.033,0,0,0,1.5-.084,1.787,1.787,0,0,0,.877-1.194,15.487,15.487,0,0,0,.251-1.55H63.369a13.265,13.265,0,0,0,26.253,0H91.1a2.132,2.132,0,0,0,1.616-.587,2,2,0,0,0,.55-1.514,17.647,17.647,0,0,0-.638-4.217c1.24-7.528.047-12.113-1.722-15.7a4.1,4.1,0,0,0,1.86-3.43V73.382h7.863a5.648,5.648,0,0,0,5.64-5.643V49.526a5.647,5.647,0,0,0-5.639-5.643ZM19.943,108.835a8.731,8.731,0,0,1-6.64,1.119h0a8.82,8.82,0,0,1-6.819-9.01l16.886,3.886a8.751,8.751,0,0,1-3.427,4.005Zm7.789-6.2L3.517,97.064a12.536,12.536,0,0,1,12.394-8.213l11.862,13.263Q27.758,102.377,27.732,102.637ZM51.245,75.509a13.859,13.859,0,0,0-.452,4.695v5.874h-5.7V78.02c0-9.111,4.973-10.735,7.2-11H67.559a6.6,6.6,0,0,1-1.414,4.471c-1.032,1.087-2.8,1.617-5.4,1.619l-5.588.006c-1.993,0-3.308.806-3.911,2.4Zm-.452,13.683v3.717h-11.1a4.436,4.436,0,0,1,1.073-2.662,3.841,3.841,0,0,1,2.771-1.055ZM67.491,63.9H53.333a58.127,58.127,0,0,1-1.492-5.761l4.3-2.794c2.35-1.526,3.572-3.682,3.354-5.915a5.5,5.5,0,0,0-3.429-4.505,5.619,5.619,0,0,0-5.225.576,18.381,18.381,0,0,1,.752-3.947,10.972,10.972,0,0,0,1.97-.389,12.9,12.9,0,0,0,3.634-1.44C60.2,41.519,66.793,47.329,67.491,63.9ZM40.471,25.912a10.079,10.079,0,0,1,20.072,1.557c0,4.644-2.227,8.387-5.818,10.034V29.312A3.1,3.1,0,0,0,51.6,25.918c-.047,0-.094-.006-.141-.006Zm2.351,4.907a7.752,7.752,0,0,1,.208-1.794h8.35c.1.01.166.022.216.032a1.852,1.852,0,0,1,.015.255v9.107a7.7,7.7,0,0,1-1.117.082h-.01a7.684,7.684,0,0,1-7.661-7.682ZM40.8,54.88l3.687-.3a1.557,1.557,0,0,0,.89-.371l6.654-5.723h0a3.092,3.092,0,0,1,2-.839A2.4,2.4,0,0,1,56.4,49.736c.1,1.052-.59,2.118-1.95,3L47.036,57.55H40.8V54.88Zm-6.579.532,3.465-.28V57.55H33.664c-.522,0-.649-.434-.664-.8A1.236,1.236,0,0,1,34.225,55.412Zm-3.684-1.075a4.5,4.5,0,0,0-.573,3.2s0,.009,0,.013H22.424V51.64l8.123,2.685-.006.012Zm3.132,6.326H47.5a1.556,1.556,0,0,0,.847-.251l.7-.457c.339,1.5.725,2.956,1.146,4.333-3.175.937-8.214,3.966-8.214,13.732v8.215A6.5,6.5,0,0,0,38.515,88.1a7.593,7.593,0,0,0-1.946,4.813h-3.14c-3.164-9.12-4.368-18.824.244-32.246Zm2.566,39.324c-.575-1.323-1.13-2.641-1.652-3.965H50.75c2.095,0,3.157-.954,3.157-2.834V81.761H66.194a1.557,1.557,0,1,0,0-3.113H53.918a7.047,7.047,0,0,1,.239-2.034c.079-.208.147-.387,1-.387l5.589-.006c3.5,0,6-.85,7.656-2.589.076-.081.149-.165.221-.249h21.03V77.66a1,1,0,0,1-.985.987h-15.5a1.557,1.557,0,0,0,0,3.113H87.755a18.379,18.379,0,0,1,2.271,9.615,16.894,16.894,0,0,0-25.731-2.009A17.149,17.149,0,0,0,59.4,99.992ZM76.5,111.345a10.257,10.257,0,0,1-9.964-8.239H86.46A10.258,10.258,0,0,1,76.5,111.345ZM88.228,99.993h-25.7A13.963,13.963,0,0,1,76.3,87.461a13.813,13.813,0,0,1,13.247,9.9c.006.018.011.037.017.055a14.368,14.368,0,0,1,.514,2.579Zm14.929-32.254a2.531,2.531,0,0,1-2.527,2.53H80.083V62.23h23.075Zm0-8.623H80.083V55.805h23.075Zm0-6.424H80.083V49.526A2.531,2.531,0,0,1,82.609,47h18.021a2.531,2.531,0,0,1,2.527,2.53Z" transform="translate(0 -14)" fill="#f8971d"/></g><g transform="translate(1069 1685.272)"><path d="M5725.9-7412.395h123.5" transform="translate(-5725.896 7412.395)" fill="none" stroke="#028c9f" stroke-linecap="round" stroke-width="4"/><path d="M5725.9-7412.395h6.017" transform="translate(-5596.024 7412.395)" fill="none" stroke="#028c9f" stroke-linecap="round" stroke-width="4"/></g></g></g></svg>